<svg width="28.000000" height="23.000000" viewBox="0 0 28 23" fill="none" xmlns="http://www.w3.org/2000/svg" xmlns:xlink="http://www.w3.org/1999/xlink">
	<desc>
			Created with Pixso.
	</desc>
	<defs/>
	<path id="Vector" d="M4.21 18.66L4.21 13.64L9.62 17.18C10.79 17.94 12.15 18.34 13.54 18.34C14.93 18.34 16.3 17.94 17.46 17.18L22.88 13.64L22.88 18.66C22.88 18.88 22.81 19.09 22.68 19.26L22.67 19.26L22.67 19.27L22.67 19.27L22.66 19.28L22.64 19.31L22.62 19.33L22.51 19.46C22.37 19.62 22.23 19.76 22.09 19.9C21.72 20.26 21.17 20.72 20.42 21.18C18.93 22.1 16.66 23 13.54 23C10.42 23 8.16 22.1 6.66 21.18C6.06 20.82 5.51 20.39 5 19.9C4.8 19.71 4.61 19.5 4.43 19.29L4.42 19.27L4.41 19.27L4.41 19.26C4.28 19.09 4.21 18.88 4.21 18.66ZM27.09 8.5L16.37 15.5C15.53 16.05 14.55 16.34 13.54 16.34C12.54 16.34 11.56 16.05 10.72 15.5L1.54 9.51L1.54 16.66C1.54 16.93 1.44 17.18 1.25 17.37C1.06 17.56 0.81 17.66 0.54 17.66C0.28 17.66 0.02 17.56 -0.16 17.37C-0.35 17.18 -0.46 16.93 -0.46 16.66L-0.46 8.33C-0.46 8.21 -0.44 8.1 -0.4 8C-0.48 7.78 -0.48 7.55 -0.4 7.34C-0.33 7.12 -0.19 6.94 0 6.82L10.75 -0.07C11.59 -0.61 12.55 -0.89 13.54 -0.89C14.53 -0.89 15.5 -0.61 16.33 -0.07L27.08 6.82C27.22 6.91 27.34 7.03 27.42 7.18C27.5 7.33 27.54 7.49 27.54 7.66C27.54 7.82 27.5 7.99 27.42 8.14C27.34 8.28 27.23 8.41 27.09 8.5Z" fill="#000000" fill-opacity="1.000000" fill-rule="nonzero"/>
</svg>
